# xmcd CD database file
#
# Track frame offsets:
#	150
#	13430
#	25872
#	40195
#	52152
#	65732
#	81545
#	97212
#	111762
#	122300
#
# Disc length: 1777 seconds
#
# Revision: 2
# Processed by: cddbd v1.4PL0 Copyright (c) Steve Scherf et al.
# Submitted via: CDex 1.40Beta9
#
DISCID=8e06ef0a
DTITLE=George Strait - Beyond The Blue Neon
DYEAR=1989
DGENRE=Country
TTITLE0=Beyond The Blue Neon
TTITLE1=Hollywood Squares
TTITLE2=Overnight Success
TTITLE3=Ace In The Hole
TTITLE4=Leavin's Been Coming (For A Long, Long Time)
TTITLE5=Baby's Gotten Good At Goodbye
TTITLE6=What's Going On In Your World
TTITLE7=Angel, Angelina
TTITLE8=Too Much Of Too Little
TTITLE9=Oh Me, Oh My Sweet Baby
EXTD=YEAR: 1989 ID3G: 2
EXTT0=
EXTT1=
EXTT2=
EXTT3=
EXTT4=
EXTT5=
EXTT6=
EXTT7=
EXTT8=
EXTT9=
PLAYORDER=
